<svg enable-background="new 0 0 200 200" viewBox="0 0 200 200" xmlns="http://www.w3.org/2000/svg"><path d="m22.67 107.31c-5.73.29-9.52-6.66-5.5-10.78 3.19-3.39 6.54-6.62 9.87-9.87 1-.97 2.21-1.04 3.17-.4 2.99 2.06-.12 4.46-1.83 6.07-1.03 1.03-1.04 1.05.03 2.13 1.81 1.83 3.64 3.65 5.49 5.44.52.51.56.91.01 1.41-.74.67-1.47 1.35-2.15 2.08-.63.66-1.11.46-1.67-.1-1.69-1.71-3.4-3.42-5.13-5.1-1.13-1.1-1.17-1.09-2.39.03-.55.5-1.03 1.08-1.52 1.63-.51.57-.59 1.13 0 1.74 1.12 1.34 2.11.19 3.05-.7 1.04-1.09 1.04-1.1 2.02-.18.3.28.59.58.88.88 2.03 2.08 2.07 1.5-.15 3.73-1.22 1.24-2.71 1.89-4.18 1.99z"/><path d="m37.84 89.88c5.58-.08 9.15 6.91 4.98 11.02-3.14 3.2-6.34 6.35-9.54 9.5-2.21 2.52-5.75-.39-4.08-2.89 2.96-3.35 6.36-6.33 9.45-9.57 1.07-1.08 1.1-1.52.41-2.32-.56-.65-1.2-.92-1.93-.29-.93.82-1.85 1.66-2.73 2.54-.51.5-.94.61-1.47.06-.75-.77-1.52-1.53-2.3-2.28-.34-.33-.47-.66-.09-1.03 2.12-2.02 4.06-4.82 7.3-4.74z"/><path d="m124.61 103.33c0-2.82-.02-5.64.01-8.45.01-1.52.05-1.55 1.53-1.51.54.02 1.32.08 1.54.41.41.62.64.47 1.15.21 6.96-3.94 12.88 5.29 8.15 10.9-2.21 2.63-4.99 3.2-7.99 1.54-.79-.44-.79-.09-.79.47-.01 1.74.02 3.48-.02 5.22-.03 1.38-.21 1.52-1.62 1.58-1.83.08-1.94 0-1.95-1.91-.03-2.82-.01-5.64-.01-8.46zm3.58-3.28c-.01 2.17.48 3.13 1.86 3.65 1.7.64 3.8-.17 4.48-1.71.78-1.77.11-4.24-1.38-5.09-2.47-1.43-4.95.15-4.96 3.15z"/><path d="m109.09 101.84c0 1.08.04 2.15-.01 3.23-.03.61.33 1.56-.52 1.7-.91.15-2.15.18-2.76-.32-.52-.42-.66-.39-1.08-.14-3.23 2.4-8.97.39-8.52-3.96.18-1.97 1.99-3.85 4.14-4 1.39-.1 2.8.16 4.2.23.21.01.55-.02.6-.13.09-.19.07-.5-.02-.71-.93-2.26-3.77-1.07-5.58-.85-.84.19-1.41.29-1.58-.77-.06-.4-.4-.76-.43-1.15-.02-.32.13-.87.35-.96 2.76-1.13 5.56-1.65 8.43-.3 3.22 1.52 2.8 5.18 2.78 8.13zm-6.47 2.57c.68-.35 1.56-.65 2.24-1.18 1.82-2.07-2.67-3.02-3.92-1.93-.84.6-1.31 2.32.05 2.69.46.16.94.25 1.63.42z"/><path d="m69.74 101.44c-1.52.05-3.1-.26-4.52.41 1.02 2.32 3.66 2.48 5.72 1.56.5-.19 1.28-.53 1.52-.33.61.51 1.02 1.28 1.42 2 .07.13-.26.59-.5.76-6.2 4.49-15-1.49-11.51-8.98 2.13-5.05 9.89-5.29 12.22-.28 2.3 5.91.66 4.72-4.35 4.86zm-1.24-5.09c-1.55 0-2.5.34-3.12 1.36-.41.67-.26 1.07.52 1.09 1.73-.01 3.53.29 5.15-.43-.29-.47-.48-1.09-.9-1.37-.59-.39-1.34-.53-1.65-.65z"/><path d="m173.11 101.45c-1.33 0-2.67-.01-4 .01-.69.03-.78.42-.4.93 1.25 1.6 3.48 1.99 5.67 1.03.43-.19 1.14-.56 1.28-.42.62.64 1.1 1.42 1.55 2.19.06.1-.31.53-.55.7-4.39 3.03-11.38 1.44-12.12-5.09-.3-2.68.66-5.01 3.01-6.64 4.64-3.5 11.46.79 10.78 6.41-.04.62-.36.86-.95.86-1.42-.01-2.84 0-4.25 0-.02.01-.02.01-.02.02zm-1.55-2.63c.73-.15 3.72.51 2.76-.85-.99-1.62-3.25-2.22-4.71-1.12-.54.41-.82 1.14-1.22 1.73 1.05.19 2.11.3 3.17.24z"/><path d="m153.85 100.42c.35 3.84-3.95 7.08-7.28 6.96-10.22-.63-9.31-14.6.29-14.43 3.78.07 7.32 3.12 6.99 7.47zm-10.7-.12c-.18 5.03 7.37 4.54 7.06-.26-.16-4.76-7.35-4.97-7.06.26z"/><path d="m116.97 107.34c-2.13.09-3.87-.65-5.51-1.69-1.56-.89-.01-1.75.55-2.78.35-.49.7-.53 1.25-.21 1.32.62 2.8 1.86 4.32 1.38.56-.24 1.02-.71 1.52-1.09-1.53-1.43-3.65-1.62-5.53-2.36-2.63-.97-2.77-5.09-.08-6.65 2.42-1.4 6.15-1.3 8.55.33 1.01.67-.47 1.74-.76 2.46-.33.56-.71.57-1.23.26-1.34-.79-4.02-1.37-4.75.42-.06.16.44.7.76.8 1.26.4 2.57.65 3.84 1.02 1.76.52 2.83 1.61 2.91 3.56.22 3.06-3.28 4.74-5.84 4.55z"/><path d="m54.55 89.37c1.84-.07 1.53.45 1.58 1.96-.02 2.09-.19 2.05 1.99 2.02.87.03 2.14-.26 2.01 1.03-.11.84.39 2.42-.93 2.39-.33 0-.67.01-1 .01-2.23-.01-2.08-.17-2.08 2.21 0 .99-.04 1.98.01 2.97.07 1.53.38 1.78 1.97 1.87.46.03 1.12-.01 1.34.26.45.56.72 1.29.95 1.99.05.16-.33.57-.6.7-3.98 1.84-7.31-.83-7.31-3.93 0-1.57-.04-3.14 0-4.71.02-.9-.22-1.37-1.23-1.4-.5-.01-1.32-.3-1.41-.63-.21-.75-.12-1.61.01-2.4.03-.17.69-.31 1.07-.36 1.62-.14 1.54-.46 1.55-1.99-.03-2.07-.03-1.99 2.08-1.99z"/><path d="m86.73 100.12c0-1.91.01-3.81-.01-5.72-.01-.72.32-1.18 1.03-1.03.89.19 2.33-.83 2.53 1.03.24-.07.54-.08.71-.22 1.22-1 2.51-1.61 4.13-1.07 1.1.36 1.23.53.84 1.57-.17.46-.33.96-.62 1.34-.46.55-1.28.47-1.92.39-1.73.08-2.76 1.09-2.79 2.8-.04 1.99.01 3.98-.01 5.96-.02 1.73-.04 1.73-1.86 1.74-1.74-.02-2.1.11-2.04-1.82-.01-1.65.01-3.31.01-4.97z"/><path d="m76.6 100.1c0-1.9.01-3.8-.01-5.7-.01-.7.25-1.16.99-1.03.89.15 2.03-.56 2.67.68.03.06.69-.1.98-.28 1.35-.84 2.73-1.21 4.23-.45.83.6-.07 1.57-.21 2.31-.28 1.19-1.43.7-2.31.79-1.79.21-2.75 1.28-2.77 3.12-.02 2.06-.03 4.13 0 6.19.11 1.59-1.33 1.08-2.38 1.19-.82.06-1.22-.25-1.2-1.12.03-1.9.01-3.8.01-5.7z"/><path d="m159.24 102.46c0 1.07-.02 2.15.01 3.22.02.8-.23 1.28-1.12 1.23-.41-.02-.83-.02-1.25 0-.8.04-1.24-.22-1.23-1.11.02-3.8.02-7.6 0-11.4 0-.71.27-1.08 1.01-1.05.5.02 1.02-.09 1.49.03.55.14 1.08.72 1.56.66.6-.07 1.13-.63 1.73-.91 1.08-.54 2.2.26 3.27.49-.28.91-.53 1.83-.86 2.73-.05.13-.41.2-.62.2-4.44-.77-4.05 2.69-3.99 5.91z"/><path d="m39.51 105.83c.99.14 2.59 2.44 2.53 3.49-.06 1.13-1.23 2.32-2.46 2.39-1 .02-1.78-.8-2.46-1.44-1.17-1.14-1.17-1.15-.09-2.25.8-.71 1.5-1.76 2.48-2.19z"/><path d="m184.33 105.1c-.05 3-4.56 2.93-4.61-.03-.14-3.06 4.85-3.15 4.61.03z"/></svg>