<?xml version="1.0" encoding="utf-8"?>
<!-- Generator: Adobe Illustrator 25.2.0, SVG Export Plug-In . SVG Version: 6.00 Build 0)  -->
<svg version="1.1" id="Layer_1" xmlns="http://www.w3.org/2000/svg" xmlns:xlink="http://www.w3.org/1999/xlink" x="0px" y="0px"
	 viewBox="0 0 200 60" style="enable-background:new 0 0 200 60;" xml:space="preserve">
<style type="text/css">
	.st0{fill:#FFFFFF;}
</style>
<g>
	<path class="st0" d="M13.59,38.2c-6.4,0.32-10.64-7.45-6.14-12.05c3.56-3.79,7.31-7.4,11.03-11.03c1.12-1.09,2.47-1.16,3.54-0.45
		c3.34,2.31-0.13,4.98-2.04,6.79c-1.15,1.15-1.16,1.17,0.04,2.38c2.03,2.05,4.07,4.08,6.13,6.08c0.58,0.57,0.63,1.02,0.02,1.57
		c-0.82,0.75-1.64,1.51-2.41,2.32c-0.7,0.74-1.24,0.52-1.86-0.11c-1.89-1.92-3.8-3.82-5.73-5.7c-1.26-1.23-1.31-1.22-2.67,0.03
		c-0.61,0.56-1.15,1.2-1.7,1.82c-0.57,0.64-0.66,1.27,0,1.95c1.25,1.5,2.36,0.22,3.4-0.78c1.17-1.22,1.16-1.23,2.25-0.2
		c0.34,0.32,0.66,0.65,0.99,0.98c2.27,2.32,2.32,1.68-0.16,4.17C16.9,37.36,15.23,38.08,13.59,38.2z"/>
	<path class="st0" d="M30.55,18.71c6.24-0.09,10.23,7.73,5.56,12.31c-3.51,3.58-7.08,7.1-10.66,10.61
		c-2.47,2.82-6.43-0.44-4.56-3.23c3.3-3.75,7.11-7.08,10.56-10.7c1.19-1.21,1.23-1.69,0.46-2.59c-0.63-0.73-1.34-1.03-2.16-0.32
		c-1.04,0.92-2.07,1.86-3.05,2.83c-0.57,0.56-1.05,0.68-1.64,0.07c-0.84-0.86-1.7-1.71-2.57-2.55c-0.38-0.37-0.52-0.73-0.1-1.15
		C24.75,21.75,26.92,18.63,30.55,18.71z"/>
	<path class="st0" d="M127.51,33.75c0-3.15-0.02-6.3,0.01-9.45c0.01-1.7,0.05-1.74,1.71-1.69c0.6,0.02,1.48,0.08,1.72,0.46
		c0.46,0.69,0.72,0.53,1.28,0.24c7.78-4.4,14.4,5.91,9.11,12.18c-2.48,2.94-5.58,3.57-8.93,1.72c-0.89-0.49-0.88-0.1-0.88,0.53
		c-0.01,1.95,0.02,3.89-0.02,5.84c-0.03,1.54-0.23,1.7-1.81,1.77c-2.04,0.09-2.16,0-2.18-2.13
		C127.49,40.05,127.51,36.9,127.51,33.75z M131.52,30.08c-0.01,2.42,0.54,3.5,2.08,4.08c1.9,0.71,4.25-0.19,5-1.91
		c0.87-1.98,0.13-4.73-1.54-5.69C134.3,24.96,131.53,26.72,131.52,30.08z"/>
	<path class="st0" d="M110.17,32.08c0,1.2,0.04,2.41-0.01,3.61c-0.03,0.68,0.37,1.74-0.58,1.9c-1.02,0.17-2.4,0.21-3.09-0.35
		c-0.59-0.47-0.74-0.44-1.21-0.15c-3.61,2.68-10.02,0.44-9.52-4.42c0.2-2.2,2.22-4.3,4.62-4.48c1.55-0.11,3.13,0.17,4.69,0.26
		c0.23,0.01,0.61-0.02,0.67-0.15c0.1-0.22,0.08-0.56-0.02-0.79c-1.04-2.53-4.21-1.2-6.24-0.95c-0.94,0.21-1.58,0.33-1.77-0.86
		c-0.07-0.44-0.44-0.85-0.48-1.29c-0.03-0.36,0.15-0.97,0.39-1.07c3.09-1.26,6.21-1.85,9.42-0.33
		C110.65,24.69,110.2,28.79,110.17,32.08z M102.94,34.96c0.76-0.39,1.74-0.72,2.5-1.32c2.04-2.31-2.98-3.37-4.39-2.16
		c-0.94,0.67-1.47,2.6,0.06,3.01C101.63,34.66,102.17,34.76,102.94,34.96z"/>
	<path class="st0" d="M66.2,31.64c-1.7,0.06-3.47-0.29-5.06,0.46c1.14,2.59,4.09,2.77,6.39,1.74c0.56-0.21,1.43-0.59,1.7-0.37
		c0.68,0.57,1.14,1.43,1.59,2.23c0.08,0.14-0.29,0.66-0.56,0.85c-6.93,5.02-16.76-1.67-12.86-10.03c2.39-5.65,11.05-5.91,13.65-0.31
		C73.63,32.81,71.79,31.48,66.2,31.64z M64.8,25.95c-1.74-0.01-2.79,0.38-3.49,1.52c-0.46,0.75-0.29,1.19,0.58,1.22
		c1.94-0.01,3.94,0.32,5.76-0.48c-0.33-0.52-0.54-1.22-1.01-1.53C65.99,26.24,65.15,26.08,64.8,25.95z"/>
	<path class="st0" d="M181.71,31.64c-1.49,0-2.98-0.01-4.47,0.01c-0.77,0.04-0.87,0.47-0.45,1.04c1.4,1.79,3.89,2.23,6.33,1.16
		c0.48-0.21,1.28-0.62,1.43-0.46c0.69,0.72,1.23,1.59,1.73,2.45c0.06,0.11-0.34,0.59-0.62,0.78c-4.91,3.38-12.72,1.61-13.55-5.69
		c-0.34-3,0.74-5.6,3.37-7.42c5.19-3.91,12.81,0.89,12.04,7.16c-0.05,0.69-0.4,0.96-1.06,0.96c-1.58-0.01-3.17,0-4.75,0
		C181.71,31.63,181.71,31.64,181.71,31.64z M179.98,28.71C179.98,28.71,179.98,28.71,179.98,28.71c0.81-0.17,4.16,0.57,3.09-0.95
		c-1.11-1.81-3.63-2.48-5.26-1.25c-0.6,0.45-0.92,1.28-1.36,1.94C177.62,28.65,178.79,28.77,179.98,28.71z"/>
	<path class="st0" d="M160.19,30.49c0.39,4.29-4.42,7.92-8.13,7.78c-11.42-0.7-10.41-16.32,0.33-16.13
		C156.6,22.23,160.56,25.63,160.19,30.49z M148.23,30.36c-0.2,5.62,8.23,5.07,7.89-0.29C155.94,24.75,147.91,24.51,148.23,30.36z"/>
	<path class="st0" d="M118.97,38.23c-2.38,0.1-4.33-0.72-6.16-1.88c-1.74-1-0.01-1.96,0.61-3.11c0.39-0.55,0.78-0.59,1.4-0.23
		c1.48,0.69,3.13,2.08,4.83,1.55c0.63-0.26,1.14-0.8,1.7-1.21c-1.71-1.59-4.08-1.81-6.18-2.64c-2.93-1.09-3.1-5.68-0.09-7.43
		c2.7-1.57,6.88-1.45,9.55,0.37c1.13,0.75-0.53,1.95-0.85,2.75c-0.37,0.62-0.8,0.64-1.38,0.29c-1.49-0.88-4.49-1.53-5.31,0.47
		c-0.07,0.17,0.49,0.78,0.85,0.89c1.41,0.44,2.87,0.72,4.29,1.14c1.97,0.59,3.16,1.8,3.25,3.98
		C125.75,36.56,121.83,38.44,118.97,38.23z"/>
	<path class="st0" d="M49.21,18.14c2.05-0.08,1.71,0.5,1.77,2.19c-0.02,2.33-0.21,2.29,2.23,2.26c0.98,0.04,2.4-0.29,2.25,1.15
		c-0.12,0.94,0.44,2.7-1.04,2.67c-0.37,0-0.74,0.01-1.11,0.01c-2.49-0.02-2.32-0.19-2.32,2.47c0,1.11-0.04,2.22,0.01,3.32
		c0.08,1.7,0.43,1.99,2.21,2.09c0.52,0.03,1.26-0.02,1.5,0.29c0.51,0.63,0.81,1.45,1.06,2.23c0.06,0.18-0.37,0.64-0.67,0.78
		c-4.44,2.06-8.17-0.93-8.17-4.39c0-1.75-0.05-3.51,0-5.26c0.03-1.01-0.24-1.53-1.38-1.56c-0.56-0.02-1.48-0.34-1.58-0.7
		c-0.23-0.84-0.13-1.8,0.01-2.68c0.03-0.19,0.77-0.34,1.2-0.4c1.82-0.16,1.72-0.51,1.74-2.22C46.86,18.06,46.85,18.14,49.21,18.14z"
		/>
	<path class="st0" d="M85.19,30.16c0-2.13,0.01-4.26-0.01-6.39c-0.01-0.81,0.36-1.32,1.15-1.15c0.99,0.22,2.6-0.92,2.83,1.15
		c0.27-0.08,0.6-0.09,0.8-0.25c1.36-1.12,2.8-1.8,4.62-1.2c1.23,0.41,1.37,0.59,0.94,1.75c-0.19,0.52-0.37,1.07-0.7,1.5
		c-0.52,0.61-1.43,0.52-2.15,0.43c-1.93,0.09-3.08,1.22-3.12,3.13c-0.04,2.22,0.01,4.44-0.02,6.67c-0.02,1.93-0.04,1.93-2.07,1.94
		c-1.94-0.02-2.35,0.13-2.28-2.04C85.16,33.87,85.18,32.01,85.19,30.16C85.18,30.16,85.18,30.16,85.19,30.16z"/>
	<path class="st0" d="M73.86,30.14c0-2.12,0.01-4.24-0.01-6.37c-0.01-0.79,0.28-1.29,1.11-1.16c1,0.17,2.26-0.63,2.98,0.76
		c0.04,0.07,0.77-0.11,1.09-0.31c1.5-0.94,3.06-1.35,4.73-0.51c0.93,0.67-0.07,1.75-0.23,2.58c-0.31,1.33-1.6,0.78-2.58,0.88
		c-2,0.23-3.07,1.43-3.1,3.49c-0.03,2.31-0.03,4.61,0,6.92c0.13,1.78-1.48,1.21-2.66,1.32c-0.91,0.06-1.36-0.28-1.34-1.25
		C73.88,34.38,73.86,32.26,73.86,30.14z"/>
	<path class="st0" d="M166.21,32.78c0,1.2-0.03,2.4,0.01,3.6c0.03,0.89-0.25,1.43-1.25,1.37c-0.46-0.02-0.93-0.02-1.39,0
		c-0.89,0.05-1.38-0.25-1.37-1.24c0.02-4.25,0.02-8.49,0-12.74c0-0.8,0.3-1.21,1.13-1.18c0.56,0.02,1.14-0.1,1.66,0.03
		c0.61,0.16,1.2,0.8,1.75,0.74c0.67-0.08,1.27-0.7,1.93-1.02c1.21-0.61,2.46,0.29,3.66,0.55c-0.31,1.02-0.6,2.05-0.96,3.05
		c-0.05,0.14-0.45,0.23-0.69,0.22C165.71,25.31,166.15,29.18,166.21,32.78C166.21,32.78,166.21,32.78,166.21,32.78z"/>
	<path class="st0" d="M32.42,36.54c1.1,0.16,2.89,2.73,2.83,3.9c-0.07,1.27-1.38,2.6-2.74,2.67c-1.12,0.02-1.98-0.9-2.75-1.61
		c-1.31-1.27-1.3-1.29-0.1-2.52C30.54,38.19,31.32,37.02,32.42,36.54z"/>
	<path class="st0" d="M194.25,35.73c-0.05,3.35-5.09,3.27-5.15-0.03C188.94,32.27,194.52,32.17,194.25,35.73z"/>
</g>
</svg>
